<svg width="28" height="28" viewBox="0 0 28 28" fill="none" xmlns="http://www.w3.org/2000/svg">
<path d="M14 3.6875C14.2486 3.6875 14.4871 3.58873 14.6629 3.41291C14.8387 3.2371 14.9375 2.99864 14.9375 2.75V1.8125C14.9375 1.56386 14.8387 1.3254 14.6629 1.14959C14.4871 0.973772 14.2486 0.875 14 0.875C13.7514 0.875 13.5129 0.973772 13.3371 1.14959C13.1613 1.3254 13.0625 1.56386 13.0625 1.8125V2.75C13.0625 2.99864 13.1613 3.2371 13.3371 3.41291C13.5129 3.58873 13.7514 3.6875 14 3.6875Z" fill="#B2ABAB"/>
<path d="M14 24.3125C13.7514 24.3125 13.5129 24.4113 13.3371 24.5871C13.1613 24.7629 13.0625 25.0014 13.0625 25.25V26.1875C13.0625 26.4361 13.1613 26.6746 13.3371 26.8504C13.5129 27.0262 13.7514 27.125 14 27.125C14.2486 27.125 14.4871 27.0262 14.6629 26.8504C14.8387 26.6746 14.9375 26.4361 14.9375 26.1875V25.25C14.9375 25.0014 14.8387 24.7629 14.6629 24.5871C14.4871 24.4113 14.2486 24.3125 14 24.3125Z" fill="#B2ABAB"/>
<path d="M26.1875 13.0625H25.25C25.0014 13.0625 24.7629 13.1613 24.5871 13.3371C24.4113 13.5129 24.3125 13.7514 24.3125 14C24.3125 14.2486 24.4113 14.4871 24.5871 14.6629C24.7629 14.8387 25.0014 14.9375 25.25 14.9375H26.1875C26.4361 14.9375 26.6746 14.8387 26.8504 14.6629C27.0262 14.4871 27.125 14.2486 27.125 14C27.125 13.7514 27.0262 13.5129 26.8504 13.3371C26.6746 13.1613 26.4361 13.0625 26.1875 13.0625Z" fill="#B2ABAB"/>
<path d="M2.75 13.0625H1.8125C1.56386 13.0625 1.3254 13.1613 1.14959 13.3371C0.973772 13.5129 0.875 13.7514 0.875 14C0.875 14.2486 0.973772 14.4871 1.14959 14.6629C1.3254 14.8387 1.56386 14.9375 1.8125 14.9375H2.75C2.99864 14.9375 3.2371 14.8387 3.41291 14.6629C3.58873 14.4871 3.6875 14.2486 3.6875 14C3.6875 13.7514 3.58873 13.5129 3.41291 13.3371C3.2371 13.1613 2.99864 13.0625 2.75 13.0625Z" fill="#B2ABAB"/>
<path d="M21.9549 4.71883L21.2921 5.38164C21.2025 5.46813 21.1311 5.57157 21.082 5.68595C21.0328 5.80033 21.007 5.92335 21.0059 6.04783C21.0048 6.17231 21.0285 6.29576 21.0757 6.41098C21.1228 6.52619 21.1924 6.63087 21.2804 6.71889C21.3685 6.80691 21.4731 6.87653 21.5884 6.92366C21.7036 6.9708 21.827 6.99452 21.9515 6.99344C22.076 6.99236 22.199 6.9665 22.3134 6.91736C22.4278 6.86823 22.5312 6.79681 22.6177 6.70727L23.2814 6.04539C23.3685 5.95829 23.4376 5.85488 23.4848 5.74108C23.5319 5.62727 23.5562 5.5053 23.5562 5.38211C23.5562 5.25893 23.5319 5.13695 23.4848 5.02315C23.4376 4.90934 23.3685 4.80594 23.2814 4.71883C23.1943 4.63173 23.0909 4.56263 22.9771 4.51549C22.8633 4.46835 22.7413 4.44409 22.6182 4.44409C22.495 4.44409 22.373 4.46835 22.2592 4.51549C22.1454 4.56263 22.042 4.63173 21.9549 4.71883Z" fill="#B2ABAB"/>
<path d="M5.38185 21.292L4.7181 21.9548C4.631 22.0419 4.5619 22.1453 4.51476 22.2591C4.46762 22.3729 4.44336 22.4949 4.44336 22.6181C4.44336 22.7413 4.46762 22.8632 4.51476 22.977C4.5619 23.0909 4.631 23.1943 4.7181 23.2814C4.89401 23.4573 5.1326 23.5561 5.38138 23.5561C5.50456 23.5561 5.62654 23.5318 5.74035 23.4847C5.85415 23.4376 5.95756 23.3685 6.04466 23.2814L6.70747 22.6185C6.79458 22.5315 6.86368 22.4282 6.91085 22.3144C6.95801 22.2007 6.98231 22.0787 6.98235 21.9556C6.9824 21.8325 6.95819 21.7105 6.9111 21.5967C6.86402 21.483 6.79499 21.3796 6.70794 21.2925C6.6209 21.2054 6.51756 21.1362 6.40381 21.0891C6.29006 21.0419 6.16813 21.0176 6.04499 21.0176C5.7963 21.0175 5.55776 21.1162 5.38185 21.292Z" fill="#B2ABAB"/>
<path d="M22.6171 21.292C22.4403 21.1212 22.2035 21.0267 21.9577 21.0288C21.7119 21.031 21.4767 21.1296 21.3029 21.3034C21.1291 21.4772 21.0305 21.7124 21.0284 21.9582C21.0262 22.204 21.1207 22.4408 21.2915 22.6176L21.9543 23.2814C22.1302 23.4573 22.3688 23.5561 22.6176 23.5561C22.8664 23.5561 23.1049 23.4573 23.2809 23.2814C23.4568 23.1054 23.5556 22.8668 23.5556 22.6181C23.5556 22.3693 23.4568 22.1307 23.2809 21.9548L22.6171 21.292Z" fill="#B2ABAB"/>
<path d="M5.38185 6.70821C5.55866 6.87898 5.79548 6.97347 6.04129 6.97134C6.2871 6.9692 6.52223 6.87061 6.69605 6.69679C6.86987 6.52297 6.96847 6.28783 6.97061 6.04202C6.97274 5.79621 6.87825 5.5594 6.70747 5.38258L6.04466 4.71883C5.86875 4.54292 5.63016 4.44409 5.38138 4.44409C5.1326 4.44409 4.89401 4.54292 4.7181 4.71883C4.54219 4.89474 4.44336 5.13333 4.44336 5.38211C4.44336 5.63089 4.54219 5.86948 4.7181 6.04539L5.38185 6.70821Z" fill="#B2ABAB"/>
<path d="M22.1567 15.3903C22.0357 15.271 21.8846 15.1867 21.7195 15.1466C21.5543 15.1065 21.3814 15.112 21.2192 15.1625C20.5901 15.3568 19.9351 15.4542 19.2767 15.4513C17.4926 15.4495 15.7821 14.7401 14.5205 13.4787C13.2589 12.2173 12.5493 10.5069 12.5473 8.72285C12.545 8.06465 12.643 7.40995 12.8379 6.78128C12.8888 6.61887 12.8945 6.44566 12.8544 6.28025C12.8144 6.11483 12.73 5.96344 12.6104 5.84232C12.4909 5.7212 12.3406 5.63492 12.1757 5.59273C12.0108 5.55055 11.8375 5.55404 11.6745 5.60285C10.2513 6.03321 8.96401 6.82507 7.9381 7.9012C6.91218 8.97733 6.18269 10.301 5.82077 11.7431C5.45885 13.1851 5.47687 14.6964 5.87306 16.1294C6.26925 17.5624 7.03008 18.8683 8.08136 19.9197C9.13264 20.9711 10.4385 21.732 11.8715 22.1283C13.3045 22.5247 14.8157 22.5428 16.2578 22.181C17.6999 21.8192 19.0236 21.0898 20.0999 20.064C21.1761 19.0382 21.9681 17.751 22.3985 16.3278C22.4473 16.1644 22.4506 15.9907 22.408 15.8255C22.3654 15.6603 22.2785 15.5098 22.1567 15.3903Z" fill="#B2ABAB"/>
</svg>
